<svg width="239" height="74" viewBox="0 0 239 74" fill="none" xmlns="http://www.w3.org/2000/svg">
<rect x="128" width="111" height="74" rx="15" fill="#45D3F6"/>
<path d="M149.736 39.4943V54H142.777V20.5455H149.54V33.3359H149.834C150.4 31.8549 151.315 30.6951 152.578 29.8565C153.841 29.0071 155.426 28.5824 157.332 28.5824C159.074 28.5824 160.593 28.9635 161.889 29.7259C163.196 30.4773 164.209 31.5608 164.928 32.9766C165.657 34.3814 166.017 36.0639 166.006 38.0241V54H159.047V39.2656C159.058 37.7192 158.666 36.5159 157.871 35.6555C157.087 34.7952 155.987 34.3651 154.571 34.3651C153.624 34.3651 152.785 34.5665 152.055 34.9695C151.337 35.3724 150.77 35.9605 150.357 36.7337C149.954 37.496 149.747 38.4162 149.736 39.4943ZM187.572 43.3168V28.9091H194.531V54H187.85V49.4425H187.589C187.022 50.9126 186.08 52.0942 184.763 52.9872C183.456 53.8802 181.86 54.3267 179.976 54.3267C178.299 54.3267 176.824 53.9455 175.55 53.1832C174.275 52.4209 173.279 51.3374 172.56 49.9325C171.852 48.5277 171.493 46.8452 171.482 44.8849V28.9091H178.441V43.6435C178.452 45.1245 178.849 46.2952 179.633 47.1555C180.417 48.0159 181.468 48.446 182.786 48.446C183.625 48.446 184.409 48.2554 185.138 47.8743C185.868 47.4822 186.456 46.9051 186.903 46.1428C187.36 45.3804 187.583 44.4384 187.572 43.3168ZM200.228 54V20.5455H207.187V33.1236H207.399C207.704 32.4484 208.145 31.7623 208.722 31.0653C209.31 30.3575 210.073 29.7694 211.009 29.3011C211.957 28.822 213.133 28.5824 214.538 28.5824C216.367 28.5824 218.055 29.0616 219.602 30.0199C221.148 30.9673 222.384 32.3994 223.31 34.3161C224.235 36.2218 224.698 38.6122 224.698 41.4872C224.698 44.286 224.246 46.6491 223.342 48.5767C222.449 50.4934 221.23 51.9472 219.683 52.9382C218.148 53.9183 216.427 54.4084 214.521 54.4084C213.171 54.4084 212.022 54.1851 211.075 53.7386C210.138 53.2921 209.37 52.7313 208.771 52.0561C208.172 51.37 207.715 50.6785 207.399 49.9815H207.089V54H200.228ZM207.04 41.4545C207.04 42.9465 207.247 44.2479 207.661 45.3587C208.074 46.4695 208.673 47.3352 209.457 47.956C210.241 48.5658 211.194 48.8707 212.316 48.8707C213.449 48.8707 214.407 48.5604 215.191 47.9396C215.975 47.308 216.569 46.4368 216.972 45.326C217.385 44.2043 217.592 42.9138 217.592 41.4545C217.592 40.0062 217.391 38.732 216.988 37.6321C216.585 36.5322 215.991 35.6719 215.207 35.0511C214.423 34.4304 213.46 34.12 212.316 34.12C211.183 34.12 210.225 34.4195 209.441 35.0185C208.668 35.6174 208.074 36.4669 207.661 37.5668C207.247 38.6667 207.04 39.9626 207.04 41.4545Z" fill="black"/>
<path d="M32.4254 32.2578H25.2706C25.1399 31.3321 24.8731 30.5099 24.4702 29.7912C24.0672 29.0616 23.55 28.4408 22.9183 27.929C22.2867 27.4171 21.5571 27.0251 20.7294 26.7528C19.9126 26.4806 19.0251 26.3445 18.0668 26.3445C16.3352 26.3445 14.8269 26.7746 13.5419 27.6349C12.2569 28.4844 11.2604 29.7259 10.5526 31.3594C9.8447 32.982 9.49077 34.9531 9.49077 37.2727C9.49077 39.6577 9.8447 41.6615 10.5526 43.2841C11.2713 44.9067 12.2732 46.1319 13.5582 46.9595C14.8433 47.7872 16.3298 48.201 18.0178 48.201C18.9652 48.201 19.8419 48.0758 20.6477 47.8253C21.4645 47.5748 22.1887 47.21 22.8203 46.7308C23.4519 46.2408 23.9747 45.6473 24.3885 44.9503C24.8132 44.2533 25.1072 43.4583 25.2706 42.5653L32.4254 42.598C32.2403 44.1335 31.7775 45.6146 31.0369 47.0412C30.3073 48.4569 29.3217 49.7256 28.0803 50.8473C26.8497 51.9581 25.3795 52.8402 23.6697 53.4936C21.9709 54.1361 20.0488 54.4574 17.9034 54.4574C14.9195 54.4574 12.2514 53.7822 9.89915 52.4318C7.55777 51.0814 5.70644 49.1267 4.34517 46.5675C2.99479 44.0083 2.3196 40.91 2.3196 37.2727C2.3196 33.6245 3.00568 30.5208 4.37784 27.9616C5.75 25.4025 7.61222 23.4531 9.96449 22.1136C12.3168 20.7633 14.9631 20.0881 17.9034 20.0881C19.8419 20.0881 21.6387 20.3603 23.294 20.9048C24.9602 21.4493 26.4358 22.2443 27.7209 23.2898C29.0059 24.3243 30.0514 25.593 30.8572 27.0959C31.674 28.5987 32.1967 30.3194 32.4254 32.2578ZM48.7035 54.4901C46.1661 54.4901 43.9717 53.951 42.1204 52.8729C40.2799 51.7839 38.8588 50.2701 37.8569 48.3317C36.855 46.3823 36.354 44.1226 36.354 41.5526C36.354 38.9607 36.855 36.6955 37.8569 34.7571C38.8588 32.8078 40.2799 31.294 42.1204 30.2159C43.9717 29.1269 46.1661 28.5824 48.7035 28.5824C51.2409 28.5824 53.4298 29.1269 55.2702 30.2159C57.1216 31.294 58.5482 32.8078 59.5501 34.7571C60.552 36.6955 61.0529 38.9607 61.0529 41.5526C61.0529 44.1226 60.552 46.3823 59.5501 48.3317C58.5482 50.2701 57.1216 51.7839 55.2702 52.8729C53.4298 53.951 51.2409 54.4901 48.7035 54.4901ZM48.7362 49.0994C49.8905 49.0994 50.8543 48.7727 51.6275 48.1193C52.4007 47.455 52.9833 46.5511 53.3754 45.4077C53.7783 44.2642 53.9798 42.9628 53.9798 41.5036C53.9798 40.0443 53.7783 38.7429 53.3754 37.5994C52.9833 36.456 52.4007 35.5521 51.6275 34.8878C50.8543 34.2235 49.8905 33.8913 48.7362 33.8913C47.5709 33.8913 46.5908 34.2235 45.7958 34.8878C45.0117 35.5521 44.4182 36.456 44.0153 37.5994C43.6232 38.7429 43.4272 40.0443 43.4272 41.5036C43.4272 42.9628 43.6232 44.2642 44.0153 45.4077C44.4182 46.5511 45.0117 47.455 45.7958 48.1193C46.5908 48.7727 47.5709 49.0994 48.7362 49.0994ZM74.8235 54.4084C72.9177 54.4084 71.1916 53.9183 69.6452 52.9382C68.1097 51.9472 66.89 50.4934 65.9862 48.5767C65.0932 46.6491 64.6467 44.286 64.6467 41.4872C64.6467 38.6122 65.1095 36.2218 66.0352 34.3161C66.9608 32.3994 68.1914 30.9673 69.7269 30.0199C71.2733 29.0616 72.9667 28.5824 74.8072 28.5824C76.212 28.5824 77.3827 28.822 78.3192 29.3011C79.2667 29.7694 80.029 30.3575 80.6062 31.0653C81.1942 31.7623 81.6407 32.4484 81.9457 33.1236H82.158V20.5455H89.1005V54H82.2397V49.9815H81.9457C81.619 50.6785 81.1561 51.37 80.5572 52.0561C79.9691 52.7313 79.2014 53.2921 78.2539 53.7386C77.3174 54.1851 76.1739 54.4084 74.8235 54.4084ZM77.0288 48.8707C78.1505 48.8707 79.0979 48.5658 79.8711 47.956C80.6552 47.3352 81.2541 46.4695 81.668 45.3587C82.0927 44.2479 82.305 42.9465 82.305 41.4545C82.305 39.9626 82.0981 38.6667 81.6843 37.5668C81.2705 36.4669 80.6715 35.6174 79.8874 35.0185C79.1033 34.4195 78.1505 34.12 77.0288 34.12C75.8853 34.12 74.9215 34.4304 74.1374 35.0511C73.3533 35.6719 72.7598 36.5322 72.3569 37.6321C71.954 38.732 71.7525 40.0062 71.7525 41.4545C71.7525 42.9138 71.954 44.2043 72.3569 45.326C72.7707 46.4368 73.3642 47.308 74.1374 47.9396C74.9215 48.5604 75.8853 48.8707 77.0288 48.8707ZM106.257 54.4901C103.676 54.4901 101.454 53.9673 99.5918 52.9219C97.7405 51.8655 96.3139 50.3736 95.312 48.446C94.3101 46.5076 93.8091 44.2152 93.8091 41.5689C93.8091 38.9879 94.3101 36.7228 95.312 34.7734C96.3139 32.8241 97.7241 31.3049 99.5428 30.2159C101.372 29.1269 103.518 28.5824 105.979 28.5824C107.634 28.5824 109.175 28.8492 110.602 29.3828C112.039 29.9055 113.292 30.6951 114.359 31.7514C115.437 32.8078 116.276 34.1364 116.874 35.7372C117.473 37.3272 117.773 39.1894 117.773 41.3239V43.2351H96.5861V38.9226H111.222C111.222 37.9207 111.005 37.0331 110.569 36.2599C110.133 35.4867 109.529 34.8823 108.756 34.4467C107.994 34.0002 107.106 33.777 106.093 33.777C105.037 33.777 104.1 34.022 103.284 34.5121C102.478 34.9912 101.846 35.6392 101.389 36.456C100.931 37.2618 100.697 38.1603 100.686 39.1513V43.2514C100.686 44.4929 100.915 45.5656 101.372 46.4695C101.841 47.3733 102.499 48.0703 103.349 48.5604C104.198 49.0504 105.206 49.2955 106.371 49.2955C107.144 49.2955 107.852 49.1866 108.494 48.9688C109.137 48.7509 109.687 48.4242 110.144 47.9886C110.602 47.553 110.95 47.0194 111.19 46.3878L117.626 46.8125C117.299 48.3589 116.629 49.7093 115.617 50.8636C114.615 52.0071 113.319 52.9001 111.729 53.5426C110.15 54.1742 108.326 54.4901 106.257 54.4901Z" fill="white"/>
</svg>
