<svg width="20" height="19" viewBox="0 0 20 19" fill="none" xmlns="http://www.w3.org/2000/svg">
<path d="M16 2.062V0H4V2.062H0V5C0 7.525 1.889 9.598 4.324 9.932C4.67278 10.9548 5.2914 11.8644 6.11448 12.5646C6.93756 13.2648 7.93452 13.7297 9 13.91V15C9 15.5304 8.78929 16.0391 8.41421 16.4142C8.03914 16.7893 7.53043 17 7 17H6V19H14V17H13C12.4696 17 11.9609 16.7893 11.5858 16.4142C11.2107 16.0391 11 15.5304 11 15V13.91C12.0655 13.7297 13.0624 13.2648 13.8855 12.5646C14.7086 11.8644 15.3272 10.9548 15.676 9.932C18.111 9.598 20 7.525 20 5V2.062H16ZM2 5V4.062H4V7.828C3.41549 7.62073 2.90946 7.23762 2.55137 6.73128C2.19327 6.22494 2.00067 5.62017 2 5ZM18 5C17.9992 5.62027 17.8066 6.22513 17.4486 6.73161C17.0905 7.2381 16.5845 7.62142 16 7.829V4.062H18V5Z" fill="#F8F8F8"/>
</svg>
