<svg width="20" height="12" viewBox="0 0 20 12" fill="none" xmlns="http://www.w3.org/2000/svg">
<path d="M0.9375 0H19.0625C19.3111 0 19.5496 0.0987719 19.7254 0.274587C19.9012 0.450403 20 0.68886 20 0.9375C20 1.18614 19.9012 1.4246 19.7254 1.60041C19.5496 1.77623 19.3111 1.875 19.0625 1.875H0.9375C0.68886 1.875 0.450403 1.77623 0.274587 1.60041C0.098772 1.4246 0 1.18614 0 0.9375C0 0.68886 0.098772 0.450403 0.274587 0.274587C0.450403 0.0987719 0.68886 0 0.9375 0ZM3.75 5.9375C3.75 5.68886 3.84877 5.4504 4.02459 5.27459C4.2004 5.09877 4.43886 5 4.6875 5H15.3125C15.5611 5 15.7996 5.09877 15.9754 5.27459C16.1512 5.4504 16.25 5.68886 16.25 5.9375C16.25 6.18614 16.1512 6.4246 15.9754 6.60041C15.7996 6.77623 15.5611 6.875 15.3125 6.875H4.6875C4.43886 6.875 4.2004 6.77623 4.02459 6.60041C3.84877 6.4246 3.75 6.18614 3.75 5.9375ZM7.5 10.9375C7.5 10.6889 7.59877 10.4504 7.77459 10.2746C7.9504 10.0988 8.18886 10 8.4375 10H11.5625C11.8111 10 12.0496 10.0988 12.2254 10.2746C12.4012 10.4504 12.5 10.6889 12.5 10.9375C12.5 11.1861 12.4012 11.4246 12.2254 11.6004C12.0496 11.7762 11.8111 11.875 11.5625 11.875H8.4375C8.18886 11.875 7.9504 11.7762 7.77459 11.6004C7.59877 11.4246 7.5 11.1861 7.5 10.9375Z" fill="#F8F8F8"/>
</svg>
