<svg width="18" height="18" viewBox="0 0 18 18" fill="none" xmlns="http://www.w3.org/2000/svg">
<path fill-rule="evenodd" clip-rule="evenodd" d="M8.28071 0.292786C8.46824 0.105315 8.72255 0 8.98771 0C9.25288 0 9.50718 0.105315 9.69471 0.292786L15.6947 6.29279L17.6947 8.29279C17.8769 8.48139 17.9777 8.73399 17.9754 8.99619C17.9731 9.25838 17.8679 9.5092 17.6825 9.6946C17.4971 9.88001 17.2463 9.98518 16.9841 9.98746C16.7219 9.98974 16.4693 9.88894 16.2807 9.70679L15.9877 9.41379V15.9998C15.9877 16.5302 15.777 17.0389 15.4019 17.414C15.0269 17.7891 14.5181 17.9998 13.9877 17.9998H10.9877C10.7225 17.9998 10.4681 17.8944 10.2806 17.7069C10.0931 17.5194 9.98771 17.265 9.98771 16.9998V13.9998H7.98771V16.9998C7.98771 17.265 7.88235 17.5194 7.69482 17.7069C7.50728 17.8944 7.25293 17.9998 6.98771 17.9998H3.98771C3.45728 17.9998 2.94857 17.7891 2.5735 17.414C2.19843 17.0389 1.98771 16.5302 1.98771 15.9998V9.41379L1.69471 9.70679C1.50611 9.88894 1.25351 9.98974 0.99131 9.98746C0.729114 9.98518 0.478301 9.88001 0.292893 9.6946C0.107485 9.5092 0.00231622 9.25838 3.78026e-05 8.99619C-0.00224062 8.73399 0.0985537 8.48139 0.280712 8.29279L2.28071 6.29279L8.28071 0.292786Z" fill="#F8F8F8"/>
</svg>
