<svg width="231" height="74" viewBox="0 0 231 74" fill="none" xmlns="http://www.w3.org/2000/svg">
<path d="M30.4254 32.2578H23.2706C23.1399 31.3321 22.8731 30.5099 22.4701 29.7912C22.0672 29.0616 21.5499 28.4408 20.9183 27.929C20.2867 27.4171 19.557 27.0251 18.7294 26.7528C17.9126 26.4806 17.0251 26.3445 16.0667 26.3445C14.3352 26.3445 12.8269 26.7746 11.5419 27.6349C10.2568 28.4844 9.2604 29.7259 8.55254 31.3594C7.84468 32.982 7.49075 34.9531 7.49075 37.2727C7.49075 39.6577 7.84468 41.6615 8.55254 43.2841C9.27128 44.9067 10.2732 46.1319 11.5582 46.9595C12.8433 47.7872 14.3298 48.201 16.0177 48.201C16.9652 48.201 17.8418 48.0758 18.6477 47.8253C19.4645 47.5748 20.1887 47.21 20.8203 46.7308C21.4519 46.2408 21.9746 45.6473 22.3885 44.9503C22.8132 44.2533 23.1072 43.4583 23.2706 42.5653L30.4254 42.598C30.2403 44.1335 29.7774 45.6146 29.0369 47.0412C28.3073 48.4569 27.3217 49.7256 26.0802 50.8473C24.8496 51.9581 23.3795 52.8402 21.6697 53.4936C19.9709 54.1361 18.0487 54.4574 15.9034 54.4574C12.9195 54.4574 10.2514 53.7822 7.89913 52.4318C5.55774 51.0814 3.70642 49.1267 2.34515 46.5675C0.99477 44.0083 0.31958 40.91 0.31958 37.2727C0.31958 33.6245 1.00566 30.5208 2.37782 27.9616C3.74998 25.4025 5.61219 23.4531 7.96447 22.1136C10.3167 20.7633 12.963 20.0881 15.9034 20.0881C17.8418 20.0881 19.6387 20.3603 21.294 20.9048C22.9602 21.4493 24.4358 22.2443 25.7209 23.2898C27.0059 24.3243 28.0514 25.593 28.8572 27.0959C29.674 28.5987 30.1967 30.3194 30.4254 32.2578Z" fill="white"/>
<path d="M46.7035 54.4901C44.1661 54.4901 41.9717 53.951 40.1204 52.8729C38.2799 51.7839 36.8588 50.2701 35.8569 48.3317C34.855 46.3823 34.354 44.1226 34.354 41.5526C34.354 38.9607 34.855 36.6955 35.8569 34.7571C36.8588 32.8078 38.2799 31.294 40.1204 30.2159C41.9717 29.1269 44.1661 28.5824 46.7035 28.5824C49.2409 28.5824 51.4298 29.1269 53.2702 30.2159C55.1215 31.294 56.5482 32.8078 57.55 34.7571C58.5519 36.6955 59.0529 38.9607 59.0529 41.5526C59.0529 44.1226 58.5519 46.3823 57.55 48.3317C56.5482 50.2701 55.1215 51.7839 53.2702 52.8729C51.4298 53.951 49.2409 54.4901 46.7035 54.4901ZM46.7361 49.0994C47.8905 49.0994 48.8543 48.7727 49.6275 48.1193C50.4007 47.455 50.9833 46.5511 51.3753 45.4077C51.7783 44.2642 51.9797 42.9628 51.9797 41.5036C51.9797 40.0443 51.7783 38.7429 51.3753 37.5994C50.9833 36.456 50.4007 35.5521 49.6275 34.8878C48.8543 34.2235 47.8905 33.8913 46.7361 33.8913C45.5709 33.8913 44.5908 34.2235 43.7958 34.8878C43.0117 35.5521 42.4182 36.456 42.0152 37.5994C41.6232 38.7429 41.4272 40.0443 41.4272 41.5036C41.4272 42.9628 41.6232 44.2642 42.0152 45.4077C42.4182 46.5511 43.0117 47.455 43.7958 48.1193C44.5908 48.7727 45.5709 49.0994 46.7361 49.0994Z" fill="white"/>
<path d="M72.8235 54.4084C70.9177 54.4084 69.1916 53.9183 67.6452 52.9382C66.1097 51.9472 64.89 50.4934 63.9861 48.5767C63.0931 46.6491 62.6466 44.286 62.6466 41.4872C62.6466 38.6122 63.1095 36.2218 64.0351 34.3161C64.9608 32.3994 66.1914 30.9673 67.7269 30.0199C69.2733 29.0616 70.9667 28.5824 72.8072 28.5824C74.212 28.5824 75.3827 28.822 76.3192 29.3011C77.2667 29.7694 78.029 30.3575 78.6062 31.0653C79.1942 31.7623 79.6407 32.4484 79.9456 33.1236H80.158V20.5455H87.1005V54H80.2397V49.9815H79.9456C79.6189 50.6785 79.1561 51.37 78.5572 52.0561C77.9691 52.7313 77.2013 53.2921 76.2539 53.7386C75.3173 54.1851 74.1739 54.4084 72.8235 54.4084ZM75.0287 48.8707C76.1504 48.8707 77.0979 48.5658 77.8711 47.956C78.6552 47.3352 79.2541 46.4695 79.6679 45.3587C80.0927 44.2479 80.305 42.9465 80.305 41.4545C80.305 39.9626 80.0981 38.6667 79.6843 37.5668C79.2705 36.4669 78.6715 35.6174 77.8874 35.0185C77.1033 34.4195 76.1504 34.12 75.0287 34.12C73.8853 34.12 72.9215 34.4304 72.1374 35.0511C71.3533 35.6719 70.7598 36.5322 70.3569 37.6321C69.9539 38.732 69.7525 40.0062 69.7525 41.4545C69.7525 42.9138 69.9539 44.2043 70.3569 45.326C70.7707 46.4368 71.3642 47.308 72.1374 47.9396C72.9215 48.5604 73.8853 48.8707 75.0287 48.8707Z" fill="white"/>
<path d="M104.257 54.4901C101.676 54.4901 99.454 53.9673 97.5918 52.9219C95.7404 51.8655 94.3138 50.3736 93.3119 48.446C92.31 46.5076 91.8091 44.2152 91.8091 41.5689C91.8091 38.9879 92.31 36.7228 93.3119 34.7734C94.3138 32.8241 95.7241 31.3049 97.5428 30.2159C99.3723 29.1269 101.518 28.5824 103.979 28.5824C105.634 28.5824 107.175 28.8492 108.602 29.3828C110.039 29.9055 111.292 30.6951 112.359 31.7514C113.437 32.8078 114.275 34.1364 114.874 35.7372C115.473 37.3272 115.773 39.1894 115.773 41.3239V43.2351H94.5861V38.9226H109.222C109.222 37.9207 109.005 37.0331 108.569 36.2599C108.133 35.4867 107.529 34.8823 106.756 34.4467C105.994 34.0002 105.106 33.777 104.093 33.777C103.037 33.777 102.1 34.022 101.284 34.5121C100.478 34.9912 99.846 35.6392 99.3886 36.456C98.9313 37.2618 98.6971 38.1603 98.6862 39.1513V43.2514C98.6862 44.4929 98.9149 45.5656 99.3723 46.4695C99.8406 47.3733 100.499 48.0703 101.349 48.5604C102.198 49.0504 103.206 49.2955 104.371 49.2955C105.144 49.2955 105.852 49.1866 106.494 48.9688C107.137 48.7509 107.687 48.4242 108.144 47.9886C108.602 47.553 108.95 47.0194 109.19 46.3878L115.626 46.8125C115.299 48.3589 114.629 49.7093 113.617 50.8636C112.615 52.0071 111.319 52.9001 109.729 53.5426C108.15 54.1742 106.326 54.4901 104.257 54.4901Z" fill="white"/>
<path d="M127 15C127 6.71573 133.716 0 142 0H216C224.284 0 231 6.71573 231 15V59C231 67.2843 224.284 74 216 74H142C133.716 74 127 67.2843 127 59V15Z" fill="#FF9000"/>
<path d="M145.736 39.4943V54H138.777V20.5455H145.54V33.3359H145.834C146.4 31.8549 147.315 30.6951 148.578 29.8565C149.841 29.0071 151.426 28.5824 153.332 28.5824C155.074 28.5824 156.593 28.9635 157.889 29.7259C159.196 30.4773 160.209 31.5608 160.928 32.9766C161.657 34.3814 162.017 36.0639 162.006 38.0241V54H155.047V39.2656C155.058 37.7192 154.666 36.5159 153.871 35.6555C153.087 34.7952 151.987 34.3651 150.571 34.3651C149.624 34.3651 148.785 34.5665 148.055 34.9695C147.337 35.3724 146.77 35.9605 146.357 36.7337C145.954 37.496 145.747 38.4162 145.736 39.4943Z" fill="black"/>
<path d="M183.572 43.3168V28.9091H190.531V54H183.85V49.4425H183.589C183.022 50.9126 182.08 52.0942 180.763 52.9872C179.456 53.8802 177.86 54.3267 175.976 54.3267C174.299 54.3267 172.824 53.9455 171.55 53.1832C170.275 52.4209 169.279 51.3374 168.56 49.9325C167.852 48.5277 167.493 46.8452 167.482 44.8849V28.9091H174.441V43.6435C174.452 45.1245 174.849 46.2952 175.633 47.1555C176.417 48.0159 177.468 48.446 178.786 48.446C179.625 48.446 180.409 48.2554 181.138 47.8743C181.868 47.4822 182.456 46.9051 182.902 46.1428C183.36 45.3804 183.583 44.4384 183.572 43.3168Z" fill="black"/>
<path d="M196.228 54V20.5455H203.187V33.1236H203.399C203.704 32.4484 204.145 31.7623 204.722 31.0653C205.31 30.3575 206.073 29.7694 207.009 29.3011C207.957 28.822 209.133 28.5824 210.538 28.5824C212.367 28.5824 214.055 29.0616 215.602 30.0199C217.148 30.9673 218.384 32.3994 219.31 34.3161C220.235 36.2218 220.698 38.6122 220.698 41.4872C220.698 44.286 220.246 46.6491 219.342 48.5767C218.449 50.4934 217.23 51.9472 215.683 52.9382C214.148 53.9183 212.427 54.4084 210.521 54.4084C209.171 54.4084 208.022 54.1851 207.075 53.7386C206.138 53.2921 205.37 52.7313 204.771 52.0561C204.172 51.37 203.715 50.6785 203.399 49.9815H203.089V54H196.228ZM203.04 41.4545C203.04 42.9465 203.247 44.2479 203.66 45.3587C204.074 46.4695 204.673 47.3352 205.457 47.956C206.241 48.5658 207.194 48.8707 208.316 48.8707C209.449 48.8707 210.407 48.5604 211.191 47.9396C211.975 47.308 212.569 46.4368 212.972 45.326C213.385 44.2043 213.592 42.9138 213.592 41.4545C213.592 40.0062 213.391 38.732 212.988 37.6321C212.585 36.5322 211.991 35.6719 211.207 35.0511C210.423 34.4304 209.459 34.12 208.316 34.12C207.183 34.12 206.225 34.4195 205.441 35.0185C204.668 35.6174 204.074 36.4669 203.66 37.5668C203.247 38.6667 203.04 39.9626 203.04 41.4545Z" fill="black"/>
</svg>
