<svg width="20" height="20" viewBox="0 0 20 20" fill="none" xmlns="http://www.w3.org/2000/svg">
<path d="M10 0C15.523 0 20 4.477 20 10C20 15.523 15.523 20 10 20C4.477 20 0 15.523 0 10C0 4.477 4.477 0 10 0ZM13.6 5.2C13.4949 5.12121 13.3754 5.06388 13.2482 5.03129C13.121 4.99869 12.9886 4.99148 12.8586 5.01005C12.7286 5.02862 12.6035 5.07262 12.4905 5.13953C12.3775 5.20643 12.2788 5.29494 12.2 5.4L10 8.333L7.8 5.4C7.72121 5.29494 7.62249 5.20643 7.50949 5.13953C7.39649 5.07262 7.27142 5.02862 7.14142 5.01005C7.01142 4.99148 6.87903 4.99869 6.75182 5.03129C6.62461 5.06388 6.50506 5.12121 6.4 5.2C6.29494 5.27879 6.20643 5.37751 6.13953 5.49051C6.07262 5.60351 6.02862 5.72858 6.01005 5.85858C5.99148 5.98858 5.99869 6.12097 6.03129 6.24818C6.06388 6.37539 6.12121 6.49494 6.2 6.6L8.75 10L6.2 13.4C6.04087 13.6122 5.97254 13.8789 6.01005 14.1414C6.04756 14.404 6.18783 14.6409 6.4 14.8C6.61217 14.9591 6.87887 15.0275 7.14142 14.99C7.40397 14.9524 7.64087 14.8122 7.8 14.6L10 11.667L12.2 14.6C12.3591 14.8122 12.596 14.9524 12.8586 14.99C13.1211 15.0275 13.3878 14.9591 13.6 14.8C13.8122 14.6409 13.9524 14.404 13.9899 14.1414C14.0275 13.8789 13.9591 13.6122 13.8 13.4L11.25 10L13.8 6.6C13.8788 6.49494 13.9361 6.37539 13.9687 6.24818C14.0013 6.12097 14.0085 5.98858 13.9899 5.85858C13.9714 5.72858 13.9274 5.60351 13.8605 5.49051C13.7936 5.37751 13.7051 5.27879 13.6 5.2Z" fill="#FF4F4F"/>
</svg>
