<svg width="20" height="20" viewBox="0 0 20 20" fill="none" xmlns="http://www.w3.org/2000/svg">
<path d="M2.22222 17.7778H3.80556L14.6667 6.91667L13.0833 5.33333L2.22222 16.1944V17.7778ZM0 20V15.2778L14.6667 0.638889C14.8889 0.435185 15.1344 0.277778 15.4033 0.166667C15.6722 0.0555557 15.9544 0 16.25 0C16.5456 0 16.8326 0.0555557 17.1111 0.166667C17.3896 0.277778 17.6304 0.444444 17.8333 0.666667L19.3611 2.22222C19.5833 2.42593 19.7456 2.66667 19.8478 2.94444C19.95 3.22222 20.0007 3.5 20 3.77778C20 4.07407 19.9493 4.35667 19.8478 4.62556C19.7463 4.89444 19.5841 5.13963 19.3611 5.36111L4.72222 20H0ZM13.8611 6.13889L13.0833 5.33333L14.6667 6.91667L13.8611 6.13889Z" fill="#FF9000"/>
</svg>
